<mxfile host="app.diagrams.net" modified="2023-04-24T07:00:01.738Z" agent="Mozilla/5.0 (Windows NT 10.0; Win64; x64) AppleWebKit/537.36 (KHTML, like Gecko) Chrome/112.0.0.0 Safari/537.36" etag="hNj8-c386JRIxBCHSaQG" version="21.2.1" type="device">
  <diagram name="Page-1" id="03018318-947c-dd8e-b7a3-06fadd420f32">
    <mxGraphModel dx="3056" dy="1004" grid="1" gridSize="10" guides="1" tooltips="1" connect="1" arrows="1" fold="1" page="1" pageScale="1" pageWidth="1100" pageHeight="850" background="#ffffff" math="0" shadow="0">
      <root>
        <mxCell id="0" />
        <mxCell id="1" parent="0" />
        <mxCell id="677b7b8949515195-1" value="" style="whiteSpace=wrap;html=1;rounded=0;shadow=0;labelBackgroundColor=none;strokeColor=#000000;strokeWidth=1;fillColor=none;fontFamily=Verdana;fontSize=12;fontColor=#000000;align=center;comic=1;" parent="1" vertex="1">
          <mxGeometry x="-8" y="20" width="1088" height="810" as="geometry" />
        </mxCell>
        <mxCell id="677b7b8949515195-2" value="LOGO" style="whiteSpace=wrap;html=1;rounded=0;shadow=0;labelBackgroundColor=none;strokeWidth=1;fontFamily=Verdana;fontSize=28;align=center;comic=1;" parent="1" vertex="1">
          <mxGeometry x="40" y="60" width="190" height="50" as="geometry" />
        </mxCell>
        <mxCell id="677b7b8949515195-3" value="Search" style="strokeWidth=1;shadow=0;dashed=0;align=center;html=1;shape=mxgraph.mockup.forms.searchBox;strokeColor=#999999;mainText=;strokeColor2=#008cff;fontColor=#666666;fontSize=17;align=left;spacingLeft=3;rounded=0;labelBackgroundColor=none;comic=1;" parent="1" vertex="1">
          <mxGeometry x="850" y="65" width="220" height="30" as="geometry" />
        </mxCell>
        <mxCell id="677b7b8949515195-7" value="Topic 4" style="text;html=1;points=[];align=left;verticalAlign=top;spacingTop=-4;fontSize=14;fontFamily=Verdana" parent="1" vertex="1">
          <mxGeometry x="770" y="75" width="60" height="20" as="geometry" />
        </mxCell>
        <mxCell id="677b7b8949515195-9" value="" style="line;strokeWidth=1;html=1;rounded=0;shadow=0;labelBackgroundColor=none;fillColor=none;fontFamily=Verdana;fontSize=14;fontColor=#000000;align=center;comic=1;" parent="1" vertex="1">
          <mxGeometry x="20" y="140" width="1060" height="10" as="geometry" />
        </mxCell>
        <mxCell id="677b7b8949515195-11" value="Section 1" style="text;html=1;points=[];align=left;verticalAlign=top;spacingTop=-4;fontSize=14;fontFamily=Verdana" parent="1" vertex="1">
          <mxGeometry x="370" y="75" width="60" height="20" as="geometry" />
        </mxCell>
        <mxCell id="677b7b8949515195-12" value="Section 2" style="text;html=1;points=[];align=left;verticalAlign=top;spacingTop=-4;fontSize=14;fontFamily=Verdana" parent="1" vertex="1">
          <mxGeometry x="460" y="75" width="60" height="20" as="geometry" />
        </mxCell>
        <mxCell id="677b7b8949515195-13" value="Section 3" style="text;html=1;points=[];align=left;verticalAlign=top;spacingTop=-4;fontSize=14;fontFamily=Verdana" parent="1" vertex="1">
          <mxGeometry x="550" y="75" width="60" height="20" as="geometry" />
        </mxCell>
        <mxCell id="677b7b8949515195-14" value="Section 4" style="text;html=1;points=[];align=left;verticalAlign=top;spacingTop=-4;fontSize=14;fontFamily=Verdana" parent="1" vertex="1">
          <mxGeometry x="270" y="75" width="60" height="20" as="geometry" />
        </mxCell>
        <mxCell id="677b7b8949515195-16" value="" style="verticalLabelPosition=bottom;shadow=0;dashed=0;align=center;html=1;verticalAlign=top;strokeWidth=1;shape=mxgraph.mockup.graphics.simpleIcon;strokeColor=#999999;rounded=0;labelBackgroundColor=none;fontFamily=Verdana;fontSize=14;fontColor=#000000;comic=1;" parent="1" vertex="1">
          <mxGeometry x="80" y="160" width="920" height="400" as="geometry" />
        </mxCell>
        <mxCell id="x6502K7x1dyFYqAmtNcC-1" value="" style="verticalLabelPosition=bottom;shadow=0;dashed=0;align=center;html=1;verticalAlign=top;strokeWidth=1;shape=mxgraph.mockup.graphics.simpleIcon;strokeColor=#999999;rounded=0;labelBackgroundColor=none;fontFamily=Verdana;fontSize=14;fontColor=#000000;comic=1;" vertex="1" parent="1">
          <mxGeometry x="720" y="590" width="280" height="210" as="geometry" />
        </mxCell>
        <mxCell id="x6502K7x1dyFYqAmtNcC-2" value="" style="verticalLabelPosition=bottom;shadow=0;dashed=0;align=center;html=1;verticalAlign=top;strokeWidth=1;shape=mxgraph.mockup.graphics.simpleIcon;strokeColor=#999999;rounded=0;labelBackgroundColor=none;fontFamily=Verdana;fontSize=14;fontColor=#000000;comic=1;" vertex="1" parent="1">
          <mxGeometry x="400" y="590" width="280" height="210" as="geometry" />
        </mxCell>
        <mxCell id="x6502K7x1dyFYqAmtNcC-3" value="" style="verticalLabelPosition=bottom;shadow=0;dashed=0;align=center;html=1;verticalAlign=top;strokeWidth=1;shape=mxgraph.mockup.graphics.simpleIcon;strokeColor=#999999;rounded=0;labelBackgroundColor=none;fontFamily=Verdana;fontSize=14;fontColor=#000000;comic=1;" vertex="1" parent="1">
          <mxGeometry x="80" y="590" width="280" height="210" as="geometry" />
        </mxCell>
      </root>
    </mxGraphModel>
  </diagram>
</mxfile>
